<?xml version="1.0" encoding="utf-8"?>
<!-- Generator: Adobe Illustrator 16.0.0, SVG Export Plug-In . SVG Version: 6.00 Build 0)  -->
<!DOCTYPE svg PUBLIC "-//W3C//DTD SVG 1.1//EN" "http://www.w3.org/Graphics/SVG/1.1/DTD/svg11.dtd">
<svg version="1.1" id="Capa_1" xmlns="http://www.w3.org/2000/svg" xmlns:xlink="http://www.w3.org/1999/xlink" x="0px" y="0px"
	 width="39.701px" height="40.76px" viewBox="0 0 39.701 40.76" enable-background="new 0 0 39.701 40.76" xml:space="preserve">
<circle fill="none" stroke="#FFFFFF" stroke-width="2" stroke-miterlimit="10" cx="19.676" cy="20.291" r="18.142"/>
<g id="Layer_1">
	<g>
		<path fill="#FFFFFF" d="M30.143,13.556c-0.217-0.248-0.527-0.391-0.856-0.391h-15.65l-0.221-1.318
			c-0.091-0.546-0.562-0.945-1.117-0.945H9.75c-0.626,0-1.132,0.506-1.132,1.133c0,0.625,0.506,1.13,1.132,1.13h1.588l2.108,12.643
			c0.008,0.051,0.035,0.092,0.05,0.142c0.017,0.059,0.033,0.115,0.06,0.172c0.035,0.073,0.085,0.138,0.136,0.202
			c0.036,0.044,0.067,0.089,0.108,0.127c0.064,0.061,0.142,0.104,0.219,0.146c0.043,0.021,0.08,0.058,0.127,0.075
			c0.13,0.053,0.27,0.085,0.416,0.085c0.001,0,12.459,0,12.459,0c0.626,0,1.132-0.508,1.132-1.135c0-0.625-0.506-1.13-1.132-1.13
			h-11.5l-0.188-1.134H28.15c0.564,0,1.044-0.411,1.122-0.969l1.133-7.927C30.453,14.133,30.353,13.804,30.143,13.556z
			 M27.979,15.429l-0.322,2.264h-4.033v-2.264H27.979z M22.49,15.429v2.264h-3.397v-2.264H22.49z M22.49,18.827v2.265h-3.397v-2.265
			H22.49z M17.961,15.429v2.264h-3.398c-0.061,0-0.114,0.019-0.168,0.035l-0.382-2.299H17.961z M14.58,18.827h3.381v2.265h-3.004
			L14.58,18.827z M23.623,21.092v-2.264h3.87l-0.323,2.264H23.623L23.623,21.092z"/>
		<circle fill="#FFFFFF" cx="16.095" cy="29.494" r="1.858"/>
		<circle fill="#FFFFFF" cx="26.054" cy="29.494" r="1.858"/>
	</g>
</g>
</svg>
