<?xml version="1.0" encoding="utf-8"?>
<!-- Generator: Adobe Illustrator 16.0.0, SVG Export Plug-In . SVG Version: 6.00 Build 0)  -->
<!DOCTYPE svg PUBLIC "-//W3C//DTD SVG 1.1//EN" "http://www.w3.org/Graphics/SVG/1.1/DTD/svg11.dtd" [
	<!ENTITY ns_extend "http://ns.adobe.com/Extensibility/1.0/">
	<!ENTITY ns_ai "http://ns.adobe.com/AdobeIllustrator/10.0/">
	<!ENTITY ns_graphs "http://ns.adobe.com/Graphs/1.0/">
	<!ENTITY ns_vars "http://ns.adobe.com/Variables/1.0/">
	<!ENTITY ns_imrep "http://ns.adobe.com/ImageReplacement/1.0/">
	<!ENTITY ns_sfw "http://ns.adobe.com/SaveForWeb/1.0/">
	<!ENTITY ns_custom "http://ns.adobe.com/GenericCustomNamespace/1.0/">
	<!ENTITY ns_adobe_xpath "http://ns.adobe.com/XPath/1.0/">
]>
<svg version="1.1" id="Capa_1" xmlns:x="&ns_extend;" xmlns:i="&ns_ai;" xmlns:graph="&ns_graphs;"
	 xmlns="http://www.w3.org/2000/svg" xmlns:xlink="http://www.w3.org/1999/xlink" x="0px" y="0px" width="16px" height="24.667px"
	 viewBox="0 0 16 24.667" enable-background="new 0 0 16 24.667" xml:space="preserve">
<metadata>
	<sfw  xmlns="&ns_sfw;">
		<slices></slices>
		<sliceSourceBounds  height="23.326" width="13.599" x="1.049" y="-29.382" bottomLeftOrigin="true"></sliceSourceBounds>
	</sfw>
</metadata>
<g>
	<path fill="#FFFFFF" d="M12.192,4.069l0.044,18.164l0.356,1.589l2.003-4.16l0.052-18.117L12.192,4.069z M12.428,13.176
		c-0.226-0.085-0.135-1.438,0.006-1.442l0.405,0.229v0.851L12.428,13.176z"/>
	<path fill="#FFFFFF" d="M4.846,0.723L1.087,2.975l3.954,0.346c0,0,0.771-0.411,1.018-0.474C6.305,2.785,8.415,2.964,8.6,3.093
		c0.16,0.11-0.551,0.517-0.551,0.517l4.21,0.467l2.389-2.533L4.846,0.723z"/>
	<path fill="#FFFFFF" d="M10.728,5.947L2.435,4.896L2.676,15.84l8.06,1.168L10.728,5.947z M3.347,6.201l6.281,0.901L9.583,7.478
		L3.302,6.579L3.347,6.201z M9.157,9.185c0,0-1.094-0.567-1.518-0.521S6.654,8.791,6.453,8.71c-0.2-0.08-0.667-0.074-0.86-0.003
		C5.399,8.778,4.099,8.765,4.099,8.765l0.537-0.073c0,0,0.438-0.041,0.775-0.061c0.337-0.021,0.935-0.205,1.131-0.097
		c0.196,0.108,0.499,0.142,0.75,0.039C7.543,8.469,8.023,8.388,8.35,8.534C8.676,8.68,9.157,9.185,9.157,9.185z M9.63,15.349
		l-6.328-0.943l0.045-0.378l6.329,0.944L9.63,15.349z M6.091,13.529h1.755c0,0-0.332,0.188-0.759,0.141
		c-0.109-0.011-0.386,0.011-0.717,0.045l1.333,0.888c0.062,0.04,0.096,0.063,0.096,0.063l-0.096-0.063
		c-0.328-0.208-1.45-0.844-2.757-0.683c-0.983,0.121,0.454-0.103,1.425-0.205L6.091,13.529z M9.678,12.694l-6.376-0.897l0.045-0.377
		l6.377,0.897L9.678,12.694z M3.656,11.082c0,0,0.506-0.074,0.866-0.047c0.359,0.027,0.334,0.092,0.623,0.131
		c0.289,0.038,0.569,0.216,0.569,0.216L3.656,11.082z M6.027,11.413c0.088-0.031,0.176-0.058,0.263-0.083
		c0.447-0.152,1.021-0.342,1.112-0.342c0.19,0,0.887,0.099,1.091,0.236c0.203,0.138,0.569,0.521,0.569,0.521
		s-0.644-0.39-0.808-0.479c-0.15-0.082-1.017-0.207-1.964,0.063C5.82,11.491,5.491,11.608,6.027,11.413z M9.678,10.086L3.302,9.188
		L3.347,8.81l6.377,0.899L9.678,10.086z"/>
	<path fill="#FFFFFF" d="M12.485,22.215l-0.203,0.014L12.259,4.016L1.062,2.938l0.596,17.507L1.65,20.442
		c0,0-1.154,1.62-0.265,1.811c0.889,0.19,1.401,0.238,1.401,0.238l0,0l7.977,1.309l0.018,0.022c0,0,0.42,0.091,1.179,0.174
		l0.323,0.053V24.02C13.05,23.967,12.485,22.215,12.485,22.215z M11.254,5.094l-0.067,16.378l-8.736-1.438L1.945,4.038L11.254,5.094
		z"/>
	<path fill="#FFFFFF" d="M12.523,22.841"/>
</g>
</svg>
