<?xml version="1.0" encoding="utf-8"?>
<!-- Generator: Adobe Illustrator 16.0.0, SVG Export Plug-In . SVG Version: 6.00 Build 0)  -->
<!DOCTYPE svg PUBLIC "-//W3C//DTD SVG 1.1//EN" "http://www.w3.org/Graphics/SVG/1.1/DTD/svg11.dtd" [
	<!ENTITY ns_extend "http://ns.adobe.com/Extensibility/1.0/">
	<!ENTITY ns_ai "http://ns.adobe.com/AdobeIllustrator/10.0/">
	<!ENTITY ns_graphs "http://ns.adobe.com/Graphs/1.0/">
	<!ENTITY ns_vars "http://ns.adobe.com/Variables/1.0/">
	<!ENTITY ns_imrep "http://ns.adobe.com/ImageReplacement/1.0/">
	<!ENTITY ns_sfw "http://ns.adobe.com/SaveForWeb/1.0/">
	<!ENTITY ns_custom "http://ns.adobe.com/GenericCustomNamespace/1.0/">
	<!ENTITY ns_adobe_xpath "http://ns.adobe.com/XPath/1.0/">
]>
<svg version="1.1" id="Capa_1" xmlns:x="&ns_extend;" xmlns:i="&ns_ai;" xmlns:graph="&ns_graphs;"
	 xmlns="http://www.w3.org/2000/svg" xmlns:xlink="http://www.w3.org/1999/xlink" x="0px" y="0px" width="20px" height="15px"
	 viewBox="0 0 20 15" enable-background="new 0 0 20 15" xml:space="preserve">
<metadata>
	<sfw  xmlns="&ns_sfw;">
		<slices></slices>
		<sliceSourceBounds  height="11.862" width="17.401" x="1.432" y="-13.472" bottomLeftOrigin="true"></sliceSourceBounds>
	</sfw>
</metadata>
<g>
	<polygon fill="#FFFFFF" points="10.516,9.756 18.459,1.61 2.083,1.61 	"/>
	<polygon fill="#FFFFFF" points="18.833,2.126 13.218,7.885 18.833,13.065 	"/>
	<polygon fill="#FFFFFF" points="7.453,7.927 1.432,2.11 1.432,13.083 	"/>
	<path fill="#FFFFFF" d="M12.913,8.494c-0.025-0.023-0.04-0.006-0.06-0.035l-2.046,2.127c-0.081,0.079-0.183,0.135-0.284,0.135
		c-0.099,0-0.195-0.031-0.274-0.108L8.103,8.543C8.087,8.56,8.078,8.482,8.058,8.501l-5.923,4.971h16.288L12.913,8.494z"/>
</g>
</svg>
