<?xml version="1.0" encoding="utf-8"?>
<!-- Generator: Adobe Illustrator 16.0.0, SVG Export Plug-In . SVG Version: 6.00 Build 0)  -->
<!DOCTYPE svg PUBLIC "-//W3C//DTD SVG 1.1//EN" "http://www.w3.org/Graphics/SVG/1.1/DTD/svg11.dtd">
<svg version="1.1" id="Capa_1" xmlns="http://www.w3.org/2000/svg" xmlns:xlink="http://www.w3.org/1999/xlink" x="0px" y="0px"
	 width="240px" height="40px" viewBox="0 0 240 40" enable-background="new 0 0 240 40" xml:space="preserve">
<path fill="#F7F6F2" d="M52.373,1.829h4.643l0.063,13.82c0,1.688,0.065,3.235,0.389,3.852c0.521,1.008,1.592,1.561,3.085,1.561
	c1.98,0,3.186,0.044,3.38-1.611c0.065-0.487,0.127-2.989,0.127-4.19L63.998,1.829h4.611l0.062,14.177
	c0,2.144-0.032,3.723-0.358,4.698c-0.584,1.786-2.791,4.255-7.663,4.255c-3.441,0-5.942-1.041-7.242-3.022
	c-0.746-1.167-0.973-2.076-0.973-4.253L52.373,1.829z"/>
<path fill="#F7F6F2" d="M121.341,1.957h4.547c1.298,0,3.019,0.065,3.929,0.132c1.916,0.162,3.54,0.909,4.936,2.24
	c2.078,2.045,2.867,4.941,3.084,8.995c1.067,19.901-16.495,16.638-16.495,16.638V1.957z M125.952,5.53v19.341
	c0,0,7.703,1.635,6.786-11.125c-0.188-2.624-0.227-4.838-1.136-6.331c-0.747-1.234-1.786-1.885-3.572-1.885H125.952z"/>
<path fill="#F7F6F2" d="M149.531,1.537c6.008,0,9.709,4.383,9.709,11.462c0,5.099-1.786,10.288-5.033,12.107
	c-1.363,0.746-2.631,1.039-4.514,1.039c-3.41,0-5.619-0.941-7.34-3.181c-1.72-2.21-2.597-6.458-2.597-9.771
	c0-4.871,1.883-8.769,5.098-10.554C146.187,1.925,147.844,1.537,149.531,1.537z M149.467,5.043c-1.527,0-2.892,0.779-3.508,1.981
	c-0.779,1.462-1.137,3.441-1.137,6.17c0,3.896,0.682,7.69,2.014,8.697c0.714,0.519,1.624,0.78,2.695,0.78
	c3.149,0,4.479-3.795,4.479-9.542c0-2.307-0.194-3.963-0.584-5.229C153.071,6.765,151.869,5.043,149.467,5.043z"/>
<path fill="#F7F6F2" d="M77.438,27.638l0.976-15.027c0.096-1.396,0.162-2.662,0.162-3.995c0,0,0.617,2.826,0.909,3.93l3.557,15.89
	l2.848,0.406l4.376-16.783c0.391-1.364,0.553-2.014,0.812-3.312c0,1.203,0.099,2.177,0.195,3.605l1.182,17.425l4.684,0.666
	L94.585,1.829h-5.943l-3.051,11.203c-0.359,1.33-0.585,2.369-0.812,3.54C84.584,15.401,84.42,14.753,84,13.13L81.043,1.829h-5.876
	l-2.379,25.147L77.438,27.638z"/>
<polygon fill="#F7F6F2" points="35.726,21.574 35.748,14.33 42.242,14.33 42.242,22.501 46.854,23.159 46.854,1.829 42.242,1.829 
	42.242,10.598 35.748,10.598 35.748,1.829 31.235,1.829 31.274,20.941 "/>
<path fill="#F7F6F2" d="M166.83,23.466l-0.083-8.486c0.355,0.033,0.486,0.098,0.714,0.194c0.779,0.392,1.493,1.463,3.732,5.522
	c0.785,1.424,0.566,1.007,1.139,1.971l4.996-0.724c-0.369-0.618-2.886-4.81-4.087-6.312c-0.293-0.392-0.487-0.586-0.942-0.943
	c2.793-0.064,5.033-2.858,5.033-6.234c0-3.962-2.631-6.624-6.624-6.624l-8.41-0.032v22.325L166.83,23.466z M166.779,5.465h1.591
	c1.104,0,2.045,0.132,2.566,0.327c1.07,0.42,1.623,1.362,1.623,2.758c0,0.942-0.325,1.754-0.877,2.273
	c-0.618,0.553-1.462,0.748-3.41,0.748h-1.525L166.779,5.465z"/>
<polygon fill="#F7F6F2" points="194.188,19.54 194.188,16.327 185.648,16.327 185.648,11.677 192.047,11.677 192.047,7.977 
	185.585,7.977 185.585,5.53 193.312,5.53 193.898,1.829 181.037,1.829 181.037,21.447 "/>
<path fill="#F7F6F2" d="M208.993,23.422c0.115-0.07,0.231-0.14,0.341-0.213c0.177-0.118,0.322-0.227,0.452-0.331
	c1.689-1.331,2.656-3.258,2.656-5.592c0-3.345-2.013-5.715-5.715-6.723l-2.727-0.746c-1.885-0.52-2.501-1.104-2.501-2.273
	c0-1.527,1.298-2.598,3.149-2.598c1.688,0,3.215,0.486,5.262,1.72l2.142-3.246c-1.98-1.429-4.772-2.274-7.534-2.274
	c-4.771,0-8.084,2.859-8.084,6.983c0,1.266,0.324,2.435,0.941,3.442c0.812,1.363,2.207,2.24,4.446,2.856l2.501,0.682
	c2.015,0.521,2.957,1.463,2.957,2.924c0,1.685-0.97,2.7-2.807,2.988l0.003,0.021c-0.127,0.007-0.204,0.012-0.204,0.012
	l-85.55,12.176l-6.187-31.466h-4.903l-6.379,31.439l-85.83-12.236c0,0-0.023,0.004-0.06,0.011l1.168-4.333l4.873-0.079l1.035,3.162
	l4.626,0.652L21.252,1.765h-4.905L9.408,23.313l3.398,0.953c12.169,3.775,83.65,14.278,91.448,14.114l0.719,0.049l1.59-11.912h6.624
	l1.581,11.934l0.284-0.015c0.624,0.07,2.231-0.02,4.606-0.243l0.04-0.003v-0.001c18.521-1.747,83.038-11.416,88.57-14.355
	c0.08-0.043,0.146-0.082,0.222-0.123c0.066-0.033,0.129-0.072,0.194-0.107C208.793,23.541,208.896,23.48,208.993,23.422z
	 M18.654,6.732l1.711,6.879h-3.434C17.417,12.117,18.654,6.732,18.654,6.732z M107.665,21.119c0.488-2.141,0.779-3.675,1.202-6.003
	c0.422-2.42,1.07-6.234,1.07-6.234s0.683,4.236,0.909,5.725c0.489,3.116,1.235,6.513,1.235,6.513H107.665z"/>
<g>
	<path fill="#F7F6F2" d="M224.232,2.509l-0.791,1.195c-0.441-0.327-0.906-0.49-1.398-0.49c-0.59,0-1.168,0.289-1.482,0.754
		c-0.34,0.504-0.49,1.233-0.49,2.251c0,1.195,0.1,1.862,0.364,2.34c0.353,0.642,0.931,0.98,1.686,0.98
		c0.478,0,0.893-0.138,1.321-0.429c0.049-0.036,0.112-0.087,0.175-0.137l0.805,1.106c-0.691,0.565-1.434,0.817-2.427,0.817
		c-1.207,0-2.138-0.39-2.855-1.207c-0.703-0.793-1.056-1.85-1.056-3.133c0-1.093,0.188-1.962,0.592-2.715
		c0.678-1.271,1.937-2.024,3.344-2.024C222.887,1.818,223.754,2.094,224.232,2.509z"/>
	<path fill="#F7F6F2" d="M225.353,2.007h1.799v7.28h3.132l-0.313,1.459h-4.617V2.007z"/>
</g>
<circle fill="#F7F6F2" cx="215.875" cy="9.38" r="1.374"/>
</svg>
