<?xml version="1.0" encoding="utf-8"?>
<!-- Generator: Adobe Illustrator 16.0.0, SVG Export Plug-In . SVG Version: 6.00 Build 0)  -->
<!DOCTYPE svg PUBLIC "-//W3C//DTD SVG 1.1//EN" "http://www.w3.org/Graphics/SVG/1.1/DTD/svg11.dtd">
<svg version="1.1" id="Capa_1" xmlns="http://www.w3.org/2000/svg" xmlns:xlink="http://www.w3.org/1999/xlink" x="0px" y="0px"
	 width="150px" height="20px" viewBox="0 0 150 20" enable-background="new 0 0 150 20" xml:space="preserve">
<rect x="2.79" y="4.507" transform="matrix(0.7071 0.7071 -0.7071 0.7071 9.9979 -3.1355)" fill="#C95A35" width="11.987" height="11.987"/>
<rect x="19.388" y="4.507" transform="matrix(0.7071 0.7071 -0.7071 0.7071 14.8595 -14.8722)" fill="#C95A35" width="11.987" height="11.987"/>
<rect x="35.986" y="4.507" transform="matrix(0.7071 0.7071 -0.7071 0.7071 19.7203 -26.6085)" fill="#C95A35" width="11.988" height="11.987"/>
<rect x="52.583" y="4.507" transform="matrix(0.7071 0.7071 -0.7071 0.7071 24.5816 -38.3448)" fill="#C95A35" width="11.988" height="11.987"/>
<rect x="69.181" y="4.507" transform="matrix(0.7071 0.7071 -0.7071 0.7071 29.443 -50.0812)" fill="#C95A35" width="11.988" height="11.987"/>
<rect x="85.778" y="4.507" transform="matrix(0.7071 0.7071 -0.7071 0.7071 34.3082 -61.8201)" fill="#C95A35" width="11.987" height="11.987"/>
<rect x="102.376" y="4.507" transform="matrix(0.7071 0.7071 -0.7071 0.7071 39.1657 -73.5538)" fill="#C95A35" width="11.988" height="11.987"/>
<rect x="118.973" y="4.507" transform="matrix(0.7071 0.7071 -0.7071 0.7071 44.0322 -85.2941)" fill="#C95A35" width="11.987" height="11.987"/>
<rect x="135.418" y="4.507" transform="matrix(0.7071 0.7071 -0.7071 0.7071 48.8434 -96.918)" fill="#C95A35" width="11.988" height="11.987"/>
</svg>
