<?xml version="1.0" encoding="utf-8"?>
<!-- Generator: Adobe Illustrator 16.0.0, SVG Export Plug-In . SVG Version: 6.00 Build 0)  -->
<!DOCTYPE svg PUBLIC "-//W3C//DTD SVG 1.1//EN" "http://www.w3.org/Graphics/SVG/1.1/DTD/svg11.dtd">
<svg version="1.1" id="Capa_1" xmlns="http://www.w3.org/2000/svg" xmlns:xlink="http://www.w3.org/1999/xlink" x="0px" y="0px"
	 width="206.5px" height="46.834px" viewBox="0 0 206.5 46.834" enable-background="new 0 0 206.5 46.834" xml:space="preserve">
<g id="Capa_3">
	<g>
		<path fill="#FFFFFF" d="M27.812,14.923c2.856,2.86,4.287,6.302,4.287,10.298c0,4.026-1.428,7.47-4.287,10.33
			c-2.832,2.828-6.273,4.257-10.301,4.257c-4.024,0-7.467-1.429-10.326-4.257c-2.829-2.858-4.258-6.302-4.258-10.33
			s1.428-7.468,4.258-10.298c2.858-2.857,6.3-4.287,10.326-4.287C21.509,10.635,24.953,12.064,27.812,14.923z M18.739,22.829v-2.626
			c0-1.138,0.231-1.663,1.487-1.663h1.985l0.175-3.443c-0.671-0.145-1.604-0.204-2.772-0.204c-3.383,0-5.133,1.984-5.133,4.58v3.325
			h-2.45v3.646h2.45v9.104h4.257v-9.104h3.413l0.233-3.614L18.739,22.829L18.739,22.829z"/>
	</g>
</g>
<g id="Capa_1_1_">
	<g>
		<path fill="#FFFFFF" d="M51.55,10.635c4.028,0,7.471,1.429,10.298,4.287c2.86,2.83,4.287,6.271,4.287,10.297
			c0,4.024-1.427,7.469-4.287,10.328c-2.828,2.827-6.271,4.258-10.298,4.258c-4.023,0-7.467-1.431-10.325-4.258
			c-2.831-2.859-4.259-6.3-4.259-10.328c0-4.025,1.428-7.468,4.259-10.297C44.084,12.063,47.525,10.635,51.55,10.635z M60.42,22.011
			c0.76-0.525,1.459-1.226,2.07-2.128c-0.817,0.322-1.605,0.554-2.391,0.641c0.875-0.494,1.458-1.254,1.779-2.305
			c-0.846,0.495-1.69,0.818-2.596,1.02c-0.817-0.874-1.807-1.313-3.006-1.313c-1.136,0-2.129,0.409-2.917,1.228
			c-0.787,0.786-1.194,1.777-1.194,2.916c0,0.349,0.028,0.673,0.086,0.962c-3.472-0.175-6.33-1.634-8.578-4.375
			c-0.349,0.671-0.523,1.372-0.523,2.103c0,1.486,0.612,2.654,1.808,3.44c-0.611,0-1.226-0.175-1.838-0.495v0.028
			c0,1.984,1.4,3.706,3.296,4.086c-0.291,0.087-0.643,0.146-1.08,0.146c-0.203,0-0.466-0.03-0.789-0.087
			c0.498,1.66,2.071,2.738,3.852,2.828c-1.603,1.258-3.296,1.864-5.134,1.864c-0.234,0-0.555-0.026-0.962-0.06
			c1.867,1.23,3.967,1.844,6.331,1.844c3.646,0,6.886-1.547,8.781-3.851c1.896-2.306,3.005-5.166,3.005-7.934L60.42,22.011
			L60.42,22.011z"/>
	</g>
</g>
<g>
	<path fill="#FFFFFF" d="M107.433,33.242c-1.604-2.45-2.393-5.136-2.393-8.022c0-0.32,0-0.582,0.03-0.787
		c0.729,2.537,3.062,4.259,6.066,4.259h0.759c-0.262,0.555-0.409,1.05-0.409,1.547c0,0.758,0.382,1.516,1.11,2.303h-1.4
		C109.883,32.541,108.629,32.773,107.433,33.242z M129.922,14.923c2.859,2.83,4.289,6.271,4.289,10.297
		c0,4.026-1.43,7.468-4.289,10.325c-2.828,2.829-6.271,4.26-10.298,4.26h-0.582c0.438-0.817,0.64-1.604,0.64-2.391
		c0-2.452-0.786-3.852-2.916-5.368c-0.495-0.379-0.992-0.817-1.459-1.312c-0.467-0.526-0.701-0.965-0.701-1.284
		c0-0.903,0.265-1.341,1.577-2.362c1.546-1.226,2.334-2.683,2.334-4.375c0-2.188-0.964-4.171-2.685-4.784h2.653l1.84-1.34h-8.284
		c-2.189,0-4.056,0.787-5.572,2.361c1.194-2.508,2.945-4.521,5.307-6.038c2.363-1.517,4.99-2.274,7.847-2.274
		C123.651,10.635,127.094,12.064,129.922,14.923z M109.416,26.301c-0.903-1.022-1.429-2.247-1.604-3.647
		c-0.174-1.4,0.031-2.567,0.643-3.53c0.613-0.962,1.458-1.4,2.538-1.37c1.079,0.058,2.041,0.583,2.945,1.574
		c0.904,0.963,1.43,2.159,1.603,3.559c0.177,1.4-0.058,2.596-0.7,3.586c-0.612,0.964-1.458,1.429-2.508,1.372
		C111.283,27.816,110.32,27.32,109.416,26.301z M117.175,39.599c-3.646-0.611-6.65-2.362-8.955-5.248
		c1.195-0.701,2.48-1.053,3.852-1.021c0.643,0,1.312,0.113,2.04,0.319c0.264,0.206,1.139,0.787,1.372,0.934
		c0.261,0.147,0.847,0.611,1.052,0.849c0.377,0.376,0.729,0.902,0.903,1.457c0.058,0.263,0.087,0.552,0.087,0.846
		C117.525,38.462,117.407,39.075,117.175,39.599z M126.919,21.572h3.646v-1.807h-3.646v-3.646h-1.84v3.646h-3.646v1.807h3.646v3.646
		h1.84V21.572z"/>
</g>
<g>
	<path fill="#FFFFFF" d="M149.52,39.193c0.726-1.137,1.225-2.158,1.485-3.09l0.993-4.027c0.554,0.964,2.072,1.808,3.586,1.808
		c2.305,0,4.199-0.931,5.658-2.828c1.488-1.896,2.218-4.26,2.218-7.149c0-2.245-0.874-4.2-2.625-5.863
		c-1.72-1.663-3.937-2.508-6.589-2.508c-3.357,0-6.187,1.225-7.85,3.004c-1.662,1.778-2.598,3.997-2.598,6.097
		c0,2.684,1.022,4.843,2.979,5.572c0.377,0.147,0.64,0.027,0.725-0.352l0.325-1.165c0.056-0.263-0.031-0.556-0.235-0.818
		c-0.642-0.787-0.962-1.721-0.962-2.858c0-1.896,0.671-3.559,1.983-4.93c1.341-1.371,3.092-2.071,5.222-2.071
		c3.82,0,6.039,2.276,6.039,5.63c0,2.129-0.438,3.969-1.314,5.484c-0.848,1.487-1.953,2.246-3.324,2.246
		c-0.758,0-1.372-0.263-1.867-0.816c-0.469-0.557-0.613-1.226-0.408-1.985c0.089-0.467,0.264-1.078,0.496-1.807
		c0.465-1.488,0.789-2.626,0.789-3.354c0-1.285-0.703-2.218-1.957-2.218c-1.604,0-2.829,1.605-2.829,3.792
		c0,0.818,0.235,1.663,0.349,2.014l0.149,0.292c-1.078,4.493-1.721,7.146-1.896,7.963c-0.264,0.963-0.322,2.072-0.232,3.328
		c-2.599-1.141-4.727-2.92-6.333-5.309c-1.604-2.421-2.42-5.106-2.42-8.053c0-4.025,1.43-7.467,4.259-10.298
		c2.859-2.857,6.3-4.287,10.327-4.287c4.022,0,7.468,1.429,10.296,4.287c2.857,2.831,4.288,6.272,4.288,10.298
		c0,4.026-1.431,7.47-4.288,10.327c-2.828,2.829-6.273,4.261-10.296,4.261C152.229,39.808,150.83,39.604,149.52,39.193z"/>
</g>
<g>
	<path fill="#FFFFFF" d="M197.997,14.923c2.858,2.859,4.288,6.302,4.288,10.298c0,4.025-1.43,7.467-4.288,10.328
		c-2.828,2.827-6.272,4.257-10.296,4.257c-4.026,0-7.468-1.427-10.327-4.257c-2.829-2.86-4.26-6.302-4.26-10.327
		c0-4.026,1.431-7.468,4.26-10.299c2.859-2.858,6.301-4.287,10.327-4.287C191.696,10.635,195.14,12.064,197.997,14.923z
		 M187.701,26.504l9.101-6.827c0-0.613-0.526-1.137-1.141-1.137h-15.925c-0.611,0-1.166,0.524-1.166,1.137L187.701,26.504z
		 M196.802,22.039l-9.101,6.826l-9.131-6.826v8.725c0,0.611,0.555,1.138,1.166,1.138h15.925c0.614,0,1.141-0.526,1.141-1.138V22.039
		L196.802,22.039z"/>
</g>
<g>
	<path fill="#FFFFFF" d="M85.588,11.611c4.022,0,7.458,1.427,10.287,4.282c2.853,2.827,4.281,6.265,4.281,10.286
		c0,4.02-1.429,7.458-4.281,10.314c-2.829,2.824-6.265,4.253-10.287,4.253c-4.02,0-7.459-1.429-10.314-4.253
		c-2.825-2.856-4.253-6.295-4.253-10.314c0-4.021,1.428-7.458,4.253-10.286C78.129,13.038,81.568,11.611,85.588,11.611z
		 M85.588,32.85c4.546,0,7.197-0.29,7.955-0.845c0.756-0.553,1.136-2.505,1.136-5.826c0-3.322-0.38-5.274-1.136-5.828
		c-0.758-0.553-3.409-0.845-7.955-0.845c-4.545,0-7.196,0.292-7.982,0.845c-0.759,0.554-1.137,2.506-1.137,5.828
		c0,3.321,0.378,5.273,1.166,5.826C78.392,32.56,81.043,32.85,85.588,32.85z M83.171,29.82v-7.285l6.06,3.643L83.171,29.82z"/>
</g>
</svg>
