<?xml version="1.0" encoding="UTF-8" standalone="no"?>
<svg width="201px" height="31px" viewBox="0 0 201 31" version="1.1" xmlns="http://www.w3.org/2000/svg" xmlns:xlink="http://www.w3.org/1999/xlink">
    <!-- Generator: Sketch 41.1 (35376) - http://www.bohemiancoding.com/sketch -->
    <title>Group</title>
    <desc>Created with Sketch.</desc>
    <defs></defs>
    <g id="Page-1" stroke="none" stroke-width="1" fill="none" fill-rule="evenodd">
        <g id="Group" fill="#FFFFFF">
            <g id="social">
                <g id="Capa_3">
                    <path d="M25.812,4.923 C28.668,7.783 30.099,11.225 30.099,15.221 C30.099,19.247 28.671,22.691 25.812,25.551 C22.98,28.379 19.539,29.808 15.511,29.808 C11.487,29.808 8.044,28.379 5.185,25.551 C2.356,22.693 0.927,19.249 0.927,15.221 C0.927,11.193 2.355,7.753 5.185,4.923 C8.043,2.066 11.485,0.636 15.511,0.636 C19.509,0.635 22.953,2.064 25.812,4.923 Z M16.739,12.829 L16.739,10.203 C16.739,9.065 16.97,8.54 18.226,8.54 L20.211,8.54 L20.386,5.097 C19.715,4.952 18.782,4.893 17.614,4.893 C14.231,4.893 12.481,6.877 12.481,9.473 L12.481,12.798 L10.031,12.798 L10.031,16.444 L12.481,16.444 L12.481,25.548 L16.738,25.548 L16.738,16.444 L20.151,16.444 L20.384,12.83 L16.739,12.829 L16.739,12.829 Z" id="Shape"></path>
                </g>
                <g id="Capa_1_1_" transform="translate(34.000000, 0.000000)">
                    <path d="M15.55,0.635 C19.578,0.635 23.021,2.064 25.848,4.922 C28.708,7.752 30.135,11.193 30.135,15.219 C30.135,19.243 28.708,22.688 25.848,25.547 C23.02,28.374 19.577,29.805 15.55,29.805 C11.527,29.805 8.083,28.374 5.225,25.547 C2.394,22.688 0.966,19.247 0.966,15.219 C0.966,11.194 2.394,7.751 5.225,4.922 C8.084,2.063 11.525,0.635 15.55,0.635 Z M24.42,12.011 C25.18,11.486 25.879,10.785 26.49,9.883 C25.673,10.205 24.885,10.437 24.099,10.524 C24.974,10.03 25.557,9.27 25.878,8.219 C25.032,8.714 24.188,9.037 23.282,9.239 C22.465,8.365 21.475,7.926 20.276,7.926 C19.14,7.926 18.147,8.335 17.359,9.154 C16.572,9.94 16.165,10.931 16.165,12.07 C16.165,12.419 16.193,12.743 16.251,13.032 C12.779,12.857 9.921,11.398 7.673,8.657 C7.324,9.328 7.15,10.029 7.15,10.76 C7.15,12.246 7.762,13.414 8.958,14.2 C8.347,14.2 7.732,14.025 7.12,13.705 L7.12,13.733 C7.12,15.717 8.52,17.439 10.416,17.819 C10.125,17.906 9.773,17.965 9.336,17.965 C9.133,17.965 8.87,17.935 8.547,17.878 C9.045,19.538 10.618,20.616 12.399,20.706 C10.796,21.964 9.103,22.57 7.265,22.57 C7.031,22.57 6.71,22.544 6.303,22.51 C8.17,23.74 10.27,24.354 12.634,24.354 C16.28,24.354 19.52,22.807 21.415,20.503 C23.311,18.197 24.42,15.337 24.42,12.569 L24.42,12.011 L24.42,12.011 Z" id="Shape"></path>
                </g>
                <path d="M105.433,23.242 C103.829,20.792 103.04,18.106 103.04,15.22 C103.04,14.9 103.04,14.638 103.07,14.433 C103.799,16.97 106.132,18.692 109.136,18.692 L109.895,18.692 C109.633,19.247 109.486,19.742 109.486,20.239 C109.486,20.997 109.868,21.755 110.596,22.542 L109.196,22.542 C107.883,22.541 106.629,22.773 105.433,23.242 Z M127.922,4.923 C130.781,7.753 132.211,11.194 132.211,15.22 C132.211,19.246 130.781,22.688 127.922,25.545 C125.094,28.374 121.651,29.805 117.624,29.805 L117.042,29.805 C117.48,28.988 117.682,28.201 117.682,27.414 C117.682,24.962 116.896,23.562 114.766,22.046 C114.271,21.667 113.774,21.229 113.307,20.734 C112.84,20.208 112.606,19.769 112.606,19.45 C112.606,18.547 112.871,18.109 114.183,17.088 C115.729,15.862 116.517,14.405 116.517,12.713 C116.517,10.525 115.553,8.542 113.832,7.929 L116.485,7.929 L118.325,6.589 L110.041,6.589 C107.852,6.589 105.985,7.376 104.469,8.95 C105.663,6.442 107.414,4.429 109.776,2.912 C112.139,1.395 114.766,0.638 117.623,0.638 C121.651,0.635 125.094,2.064 127.922,4.923 Z M107.416,16.301 C106.513,15.279 105.987,14.054 105.812,12.654 C105.638,11.254 105.843,10.087 106.455,9.124 C107.068,8.162 107.913,7.724 108.993,7.754 C110.072,7.812 111.034,8.337 111.938,9.328 C112.842,10.291 113.368,11.487 113.541,12.887 C113.718,14.287 113.483,15.483 112.841,16.473 C112.229,17.437 111.383,17.902 110.333,17.845 C109.283,17.816 108.32,17.32 107.416,16.301 Z M115.175,29.599 C111.529,28.988 108.525,27.237 106.22,24.351 C107.415,23.65 108.7,23.298 110.072,23.33 C110.715,23.33 111.384,23.443 112.112,23.649 C112.376,23.855 113.251,24.436 113.484,24.583 C113.745,24.73 114.331,25.194 114.536,25.432 C114.913,25.808 115.265,26.334 115.439,26.889 C115.497,27.152 115.526,27.441 115.526,27.735 C115.525,28.462 115.407,29.075 115.175,29.599 Z M124.919,11.572 L128.565,11.572 L128.565,9.765 L124.919,9.765 L124.919,6.119 L123.079,6.119 L123.079,9.765 L119.433,9.765 L119.433,11.572 L123.079,11.572 L123.079,15.218 L124.919,15.218 L124.919,11.572 Z" id="Shape"></path>
                <path d="M195.997,4.923 C198.855,7.782 200.285,11.225 200.285,15.221 C200.285,19.246 198.855,22.688 195.997,25.549 C193.169,28.376 189.725,29.806 185.701,29.806 C181.675,29.806 178.233,28.379 175.374,25.549 C172.545,22.689 171.114,19.247 171.114,15.222 C171.114,11.196 172.545,7.754 175.374,4.923 C178.233,2.065 181.675,0.636 185.701,0.636 C189.696,0.635 193.14,2.064 195.997,4.923 Z M185.701,16.504 L194.802,9.677 C194.802,9.064 194.276,8.54 193.661,8.54 L177.736,8.54 C177.125,8.54 176.57,9.064 176.57,9.677 L185.701,16.504 Z M194.802,12.039 L185.701,18.865 L176.57,12.039 L176.57,20.764 C176.57,21.375 177.125,21.902 177.736,21.902 L193.661,21.902 C194.275,21.902 194.802,21.376 194.802,20.764 L194.802,12.039 L194.802,12.039 Z" id="Shape"></path>
                <path d="M83.588,1.611 C87.61,1.611 91.046,3.038 93.875,5.893 C96.728,8.72 98.156,12.158 98.156,16.179 C98.156,20.199 96.727,23.637 93.875,26.493 C91.046,29.317 87.61,30.746 83.588,30.746 C79.568,30.746 76.129,29.317 73.274,26.493 C70.449,23.637 69.021,20.198 69.021,16.179 C69.021,12.158 70.449,8.721 73.274,5.893 C76.129,3.038 79.568,1.611 83.588,1.611 Z M83.588,22.85 C88.134,22.85 90.785,22.56 91.543,22.005 C92.299,21.452 92.679,19.5 92.679,16.179 C92.679,12.857 92.299,10.905 91.543,10.351 C90.785,9.798 88.134,9.506 83.588,9.506 C79.043,9.506 76.392,9.798 75.606,10.351 C74.847,10.905 74.469,12.857 74.469,16.179 C74.469,19.5 74.847,21.452 75.635,22.005 C76.392,22.56 79.043,22.85 83.588,22.85 Z M81.171,19.82 L81.171,12.535 L87.231,16.178 L81.171,19.82 Z" id="Shape"></path>
            </g>
            <path d="M151,1 C142.715728,1 136,7.71572836 136,16 C136,24.2842716 142.715728,31 151,31 C159.284272,31 166,24.2842716 166,16 C166,7.71572836 159.284272,1 151,1 L151,1 Z M157.570788,21.7057995 C157.582096,21.6445231 157.590388,21.5822616 157.6,21.5207881 L157.6,10.4792119 C157.590765,10.4187236 157.58285,10.3580382 157.571542,10.297747 C157.456012,9.67926898 156.968072,9.19930324 156.368937,9.1135951 C156.34406,9.1102456 156.319748,9.10453168 156.295247,9.1 L145.704753,9.1 C145.640863,9.11201884 145.576596,9.12108226 145.513648,9.13605652 C144.928837,9.27535696 144.496118,9.76773556 144.412816,10.3871987 C144.409423,10.4130097 144.404335,10.4386236 144.4,10.4644346 L144.4,21.5361565 C144.412062,21.6062993 144.421674,21.6770331 144.436751,21.7467818 C144.566039,22.3445717 145.054167,22.8079869 145.634832,22.8860109 C145.662914,22.8895574 145.691183,22.8952713 145.719265,22.9 L156.280735,22.9 C156.349337,22.8877841 156.418127,22.8777356 156.485975,22.8623672 C157.024989,22.7427698 157.465435,22.2726556 157.570788,21.7057995 L157.570788,21.7057995 Z M145.828199,20.8593575 C145.828199,21.1531296 146.071509,21.4057224 146.352512,21.4057224 C149.450146,21.4059195 152.547592,21.4059195 155.645226,21.4057224 C155.928868,21.4057224 156.170859,21.1535237 156.170859,20.8575842 C156.171048,18.8177298 156.170859,16.7780725 156.170859,14.7384152 L156.170859,14.6960537 L154.910773,14.6960537 C155.088685,15.290494 155.14334,15.8951799 155.073608,16.5114906 C155.003498,17.1279983 154.813524,17.7017504 154.504062,18.2315648 C154.194412,18.7619703 153.792978,19.2013478 153.301458,19.5510765 C152.027425,20.4582039 150.350074,20.5380011 148.998204,19.7447573 C148.314825,19.3441947 147.778261,18.7856139 147.404155,18.0658623 C146.846106,16.9918504 146.756961,15.8646402 147.084327,14.6950685 C146.666309,14.6954626 146.249986,14.6954626 145.82801,14.6954626 L145.82801,14.7327013 C145.82801,16.77492 145.827822,18.8171388 145.828199,20.8593575 L145.828199,20.8593575 Z M150.938654,18.7948743 C152.433193,18.8283695 153.642017,17.5799857 153.673491,16.0616705 C153.705718,14.4958709 152.497649,13.2025643 151.000094,13.2035494 C149.536087,13.2025643 148.345922,14.4340034 148.325379,15.9576385 C148.304271,17.5222559 149.502352,18.7625614 150.938654,18.7948743 L150.938654,18.7948743 Z M156.170671,12.0889492 C156.170859,11.6533152 156.170859,11.2174843 156.170671,10.7818504 C156.170671,10.4693604 155.934145,10.2207081 155.635615,10.2205112 C155.220046,10.2203141 154.804477,10.2201171 154.388721,10.2205112 C154.090944,10.2209052 153.853664,10.4701485 153.853476,10.7826385 C153.853287,11.2145288 153.852157,11.6464192 153.854984,12.0785066 C153.855361,12.1429355 153.867045,12.2099258 153.886646,12.2710052 C153.961279,12.5009394 154.162749,12.6420131 154.409452,12.6431953 C154.60998,12.6435894 154.810508,12.6429983 155.011225,12.6429983 C155.228339,12.6404369 155.446206,12.6447716 155.663507,12.6392547 C155.943003,12.6319646 156.170671,12.3815391 156.170671,12.0889492 L156.170671,12.0889492 Z" id="Oval-1"></path>
        </g>
    </g>
</svg>